<?xml version="1.0" encoding="UTF-8" standalone="no"?>
<!DOCTYPE svg PUBLIC "-//W3C//DTD SVG 1.1//EN" "http://www.w3.org/Graphics/SVG/1.1/DTD/svg11.dtd">
<svg width="100%" height="100%" viewBox="0 0 1200 800" version="1.1" xmlns="http://www.w3.org/2000/svg" xmlns:xlink="http://www.w3.org/1999/xlink" xml:space="preserve" xmlns:serif="http://www.serif.com/" style="fill-rule:evenodd;clip-rule:evenodd;stroke-linejoin:round;stroke-miterlimit:2;">
    <rect id="Mesa-de-trabajo1" serif:id="Mesa de trabajo1" x="0" y="0" width="1200" height="800" style="fill:none;"/>
    <g id="Mesa-de-trabajo11" serif:id="Mesa de trabajo1">
        <g transform="matrix(2.250806,-1.336391,1.419766,2.391229,-275.522593,194.900104)">
            <path d="M336.132,188.266C346.432,188.266 353.132,183.166 357.832,175.466L356.432,174.966C352.432,182.466 345.032,186.566 337.832,186.566C328.231,186.566 319.131,177.366 316.832,165.166L359.332,153.766C354.132,138.866 344.332,135.066 335.032,135.066C320.332,135.066 308.432,146.866 308.432,161.766C308.432,176.466 321.432,188.266 336.132,188.266L336.132,188.266ZM316.332,159.466C316.332,144.766 323.232,136.466 332.132,136.466C341.332,136.466 349.532,144.266 351.432,154.566L316.632,163.966C316.432,162.466 316.332,160.966 316.332,159.466Z" style="fill-rule:nonzero;"/>
        </g>
        <g transform="matrix(2.510921,0,0,2.222025,-102.585619,-239.090616)">
            <path d="M379.232,144.866C382.431,140.566 387.231,136.366 392.632,136.366C398.332,136.366 403.032,141.066 404.932,148.566C409.131,148.566 409.832,145.466 409.832,142.566C405.432,137.566 399.332,135.066 393.332,135.066C386.632,135.066 382.032,139.366 379.232,142.566L379.232,135.066L377.432,135.066L367.732,137.866C367.832,138.266 367.732,138.666 368.332,138.666C371.232,138.666 371.732,140.066 371.732,142.866L371.732,180.166C371.732,183.166 371.132,184.766 367.932,186.066L367.932,186.666L383.032,186.666L383.032,186.066C379.832,184.766 379.232,183.166 379.232,180.166L379.232,144.866Z" style="fill-rule:nonzero;"/>
        </g>
        <g transform="matrix(7.533041,0,0,6.116497,-4568.717019,-852.36108)">
            <path d="M732.118,166.371L732.118,228.27C732.118,247.07 722.517,258.87 707.217,258.87C691.718,258.87 681.918,247.871 681.918,230.47C681.918,207.071 705.617,212.97 709.818,205.37L709.818,238.57L721.118,238.57L721.118,237.97C717.918,236.67 717.318,235.071 717.318,232.07L717.318,204.27C717.318,190.771 704.818,186.97 698.018,186.97C685.718,186.97 680.218,194.47 678.618,196.07C678.618,198.97 679.317,202.071 683.518,202.071C685.718,193.371 691.018,188.271 696.918,188.271C702.218,188.271 709.418,190.971 709.818,203.27C707.018,212.67 673.618,203.57 673.618,230.47C673.618,247.871 687.117,260.17 706.418,260.17C725.418,260.17 739.618,246.971 739.618,228.27L739.618,158.571L737.818,158.571L728.118,161.371C728.218,161.771 728.118,162.171 728.718,162.171C731.618,162.171 732.118,163.571 732.118,166.371L732.118,166.371Z" style="fill-rule:nonzero;"/>
        </g>
        <g transform="matrix(6.032134,0,0,6.291419,-809.18353,-1410.500879)">
            <path d="M166.913,234.538C169.213,235.838 170.913,237.238 171.913,240.038L196.713,303.938L203.813,303.938L228.613,240.038C229.613,237.238 231.313,235.838 233.613,234.538L233.613,233.938L224.513,233.938L224.513,234.538C228.613,235.838 228.113,237.238 227.113,240.038L203.713,300.338L180.313,240.038C179.213,237.238 178.713,235.838 182.813,234.538L182.813,233.938L166.913,233.938L166.913,234.538L166.913,234.538Z" style="fill-rule:nonzero;"/>
        </g>
    </g>
</svg>
